# xmcd
#
# Track frame offsets:
#	150
#	26217
#	41829
#	57022
#	73335
#	90715
#	119035
#	140214
#	156328
#	179349
#	194841
#	219067
#	239193
#	265349
#	284888
#	316633
#
# Disc length: 4426 seconds
#
# Revision: 0
# Processed by: cddbd v1.4PL0 Copyright (c) Steve Scherf et al.
# Submitted via: audiograbber 1.80.04
#
DISCID=0d114810
DTITLE=Various Artist - Everyday Is Earth Day
DYEAR=1900
DGENRE=
TTITLE0=Bruce Cockburn - If A Tree Falls
TTITLE1=K D Lang - Trail Of Broken Hearts
TTITLE2=Leonard Cohen - If It Be Your Will
TTITLE3=Loreena McKennitt - Ancient Pines
TTITLE4=Crash Test Dummies - Swimming In Your Ocean
TTITLE5=Joni Mitchell - The Three Great Stimulants
TTITLE6=Blue Rodeo - Fools Like You
TTITLE7=Cowboy Junkies - Love's Still There
TTITLE8=Sarah McLachlan - Mary
TTITLE9=The Guess Who - Hand Me Down World
TTITLE10=Robbie Robertson - Shake This Town
TTITLE11=Randy Bachman With Neil Young - Prairie Town
TTITLE12=Corey Hart - 92 Days Of Rain
TTITLE13=The Tragically Hip - New Orleans Is Sinking
TTITLE14=Rush - Red Tide
TTITLE15=Text - Text
EXTD=
EXTT0=
EXTT1=
EXTT2=
EXTT3=
EXTT4=
EXTT5=
EXTT6=
EXTT7=
EXTT8=
EXTT9=
EXTT10=
EXTT11=
EXTT12=
EXTT13=
EXTT14=
EXTT15=
PLAYORDER=
